<?xml version="1.0" encoding="UTF-8"?> <svg xmlns="http://www.w3.org/2000/svg" width="135" height="100" viewBox="0 0 135 100" fill="none"><path d="M3.388 63.197V47.336H0v-4.754h3.388v-.86c0-4.837 2.94-7.419 6.9-7.419 1.591 0 2.938.328 3.918.86l-1.102 4.017c-.408-.287-1.02-.41-1.755-.41-1.51 0-2.531.984-2.531 2.992v.86h4.164v4.755H8.777v15.86H3.388v-.04Zm26.576 0V50.656c0-2.87-1.47-3.77-3.797-3.77-2.123 0-3.796 1.188-4.694 2.376v13.935h-5.43V34.713h5.43v10.492c1.306-1.517 3.837-3.156 7.184-3.156 4.49 0 6.695 2.46 6.695 6.476v14.63l-5.388.042Z" fill="#1E1E1E"></path><path d="M38.904 36.311a3.238 3.238 0 0 1 3.225-3.237 3.212 3.212 0 0 1 3.225 3.237 3.212 3.212 0 0 1-3.225 3.238c-1.755 0-3.225-1.475-3.225-3.238Zm.531 26.886V42.582h5.389v20.615h-5.389Z" fill="#1E1E1E"></path><path d="M50.09 55.738c1.836 1.926 4.776 3.074 7.43 3.074 3.265 0 5.061-1.435 5.061-3.484 0-2.172-1.633-3.197-5.389-3.197-1.142 0-2.939 0-3.347.041v-5c.49.041 2.286.041 3.348.041 2.98 0 4.94-.983 4.94-2.991 0-2.132-2.165-3.238-4.981-3.238-2.613 0-4.94 1.024-6.858 2.828l-2.817-3.566c2.163-2.459 5.552-4.303 10.287-4.303 6.287 0 10.165 2.828 10.165 7.336 0 3.402-2.898 5.615-5.879 6.147 2.736.287 6.287 2.418 6.287 6.476 0 4.631-4.164 7.91-10.614 7.91-4.94 0-8.613-1.886-10.614-4.344l2.98-3.73Z" fill="#1E1E1E"></path><path d="M82.666 35.983c3.266 0 6.001 1.148 7.92 2.787l-2.572 4.344c-1.47-1.393-2.98-2.13-5.348-2.13-4.082 0-6.735 3.524-6.735 7.786 0 .205 0 .41.04.574 1.266-1.803 3.96-3.443 6.9-3.443 4.817 0 9.144 2.951 9.144 8.689 0 5.246-4.164 9.262-10.288 9.262-8.164 0-11.593-6.311-11.593-13.934 0-8.156 4.613-13.935 12.532-13.935Zm-1.428 14.673c-2 0-3.96 1.024-5.226 2.581.245 2.582 1.674 5.574 5.47 5.574 3.103 0 4.736-2.09 4.736-4.016 0-2.869-2.368-4.14-4.98-4.14Z" fill="#1E1E1E"></path><path d="M104.587 35.983c7.675 0 11.104 6.968 11.104 13.935 0 6.967-3.47 13.934-11.104 13.934-7.715 0-11.104-7.008-11.104-13.934 0-6.926 3.389-13.935 11.104-13.935Zm0 5.082c-3.878 0-5.307 3.853-5.307 8.812s1.47 8.852 5.307 8.852c3.837 0 5.266-3.893 5.266-8.852 0-4.96-1.429-8.812-5.266-8.812Z" fill="#1E1E1E"></path><path d="M85.155 100c-14.451 0-28.127-6.27-37.639-17.213l4.205-3.648c8.41 9.714 20.616 15.328 33.434 15.328 24.412 0 44.251-19.918 44.251-44.426 0-24.508-19.839-44.426-44.251-44.426-13.186 0-25.596 5.86-34.046 16.024l-4.246-3.606C56.375 6.557 70.336 0 85.196 0c27.473 0 49.803 22.418 49.803 50s-22.371 50-49.844 50Z" fill="#FF4719"></path></svg> 